<svg width="130" height="45" viewBox="0 0 130 45" fill="none" xmlns="http://www.w3.org/2000/svg">
<path d="M25.9697 9.63347C26.7378 10.3012 27.3038 11.6365 27.6676 13.6396C28.0315 15.6009 28.173 17.7918 28.0921 20.2121C28.0517 20.9633 27.9506 22.0065 27.7889 23.3419C27.6272 24.6356 27.4251 26.0753 27.1825 27.661C26.9804 29.205 26.7378 30.7908 26.4548 32.4183C26.2122 34.0458 25.9697 35.5481 25.7271 36.9252C25.4845 38.3023 25.2622 39.4707 25.0601 40.4305C24.8983 41.3486 24.7973 41.8911 24.7569 42.058C24.676 42.3501 24.4536 42.6422 24.0898 42.9343C23.7259 43.2265 23.3419 43.4768 22.9376 43.6855C22.5738 43.8524 22.2099 43.9776 21.8461 44.0611C21.4822 44.1028 21.2599 44.0193 21.179 43.8107C21.1386 43.6855 21.1386 43.0387 21.179 41.8702C21.2194 40.7018 21.2801 39.2621 21.3609 37.5511C21.4418 35.7984 21.5226 33.9414 21.6035 31.9801C21.7248 29.977 21.8259 28.0992 21.9067 26.3465C21.9876 24.5938 22.0684 23.1124 22.1493 21.9022C22.2301 20.6503 22.2706 19.8991 22.2706 19.6488C22.311 18.3551 22.2099 17.2284 21.9673 16.2686C21.7248 15.2671 21.3205 14.7663 20.7545 14.7663C20.5524 14.7663 20.3098 14.8706 20.0268 15.0793C19.7438 15.2462 19.4608 15.4549 19.1778 15.7052C18.9353 15.9556 18.6927 16.2269 18.4501 16.519C18.248 16.8111 18.1469 17.0823 18.1469 17.3327C18.1065 18.0839 18.0459 19.1897 17.965 20.6503C17.9246 22.1109 17.8639 23.7175 17.7831 25.4702C17.7427 27.2228 17.682 29.0172 17.6012 30.8534C17.5607 32.6895 17.5001 34.3796 17.4192 35.9236C17.3788 37.4677 17.3384 38.7613 17.298 39.8046C17.2575 40.8061 17.2171 41.3695 17.1767 41.4946C17.0958 41.6616 16.833 41.7868 16.3883 41.8702C15.9841 41.9119 15.5191 41.9119 14.9936 41.8702C14.468 41.8285 13.9829 41.7242 13.5382 41.5572C13.1339 41.3903 12.8914 41.1608 12.8105 40.8687C12.7296 40.66 12.669 40.0341 12.6286 38.9908C12.5881 37.9058 12.5275 36.6122 12.4466 35.1099C12.4062 33.6076 12.3658 32.001 12.3254 30.29C12.2849 28.5373 12.2445 26.9099 12.2041 25.4076C12.1637 23.9053 12.1232 22.6116 12.0828 21.5266C12.0828 20.4416 12.0828 19.774 12.0828 19.5236C12.0828 18.522 12.0019 17.7292 11.8402 17.1449C11.6785 16.519 11.4764 16.0391 11.2338 15.7052C11.0317 15.3297 10.7891 15.1002 10.5061 15.0167C10.2231 14.8915 9.94014 14.8289 9.65714 14.8289C9.53586 14.8289 9.35394 14.9332 9.11137 15.1419C8.8688 15.3088 8.62624 15.5801 8.38367 15.9556C8.14111 16.2895 7.93897 16.6859 7.77726 17.1449C7.61555 17.5622 7.55491 18.0213 7.59534 18.522C7.59534 18.7307 7.61555 19.5027 7.65598 20.8381C7.6964 22.1735 7.71662 23.7801 7.71662 25.6579C7.75705 27.5358 7.79747 29.5597 7.8379 31.7297C7.87833 33.8997 7.89854 35.9236 7.89854 37.8015C7.93897 39.6376 7.95918 41.2025 7.95918 42.4962C7.95918 43.7481 7.95918 44.4158 7.95918 44.4992C7.87833 44.7079 7.65598 44.8331 7.29213 44.8748C6.92828 44.8748 6.524 44.7913 6.0793 44.6244C5.6346 44.4575 5.21011 44.228 4.80583 43.9359C4.40155 43.602 4.11856 43.2056 3.95685 42.7466C3.876 42.4127 3.75471 41.6824 3.593 40.5557C3.43129 39.429 3.24937 38.0936 3.04723 36.5496C2.84509 34.9638 2.64295 33.2737 2.44082 31.4793C2.23868 29.6432 2.03654 27.8905 1.8344 26.2213C1.63226 24.5104 1.45034 22.9663 1.28863 21.5892C1.16735 20.2121 1.06628 19.1689 0.985423 18.4594C0.86414 17.4579 0.722643 16.3729 0.560933 15.2045C0.43965 13.9943 0.318367 12.8467 0.197085 11.7617C0.116229 10.635 0.055588 9.6752 0.0151604 8.88232C-0.0252673 8.04771 0.0151604 7.52608 0.136443 7.31743C0.217298 7.15051 0.500292 7.08791 0.985423 7.12964C1.51098 7.17137 2.05675 7.29656 2.62274 7.50522C3.22915 7.67214 3.79514 7.92252 4.3207 8.25636C4.88669 8.54848 5.25053 8.86145 5.41224 9.1953C5.53353 9.44568 5.65481 9.75866 5.77609 10.1342C5.9378 10.4681 6.09951 11.0106 6.26122 11.7617C6.94849 11.2192 7.65598 10.7185 8.38367 10.2594C9.11137 9.75866 9.83907 9.38308 10.5668 9.1327C11.2945 8.84059 11.9817 8.69453 12.6286 8.69453C13.3158 8.6528 13.9627 8.84059 14.5691 9.25789C15.0947 9.6752 15.6 10.4055 16.0851 11.4487C18.0257 10.322 19.8853 9.55001 21.6641 9.1327C23.4834 8.67367 24.9186 8.84059 25.9697 9.63347Z" fill="#00FF00"/>
<path d="M44.8898 13.2014C44.9707 13.3266 45.0919 13.9108 45.2536 14.9541C45.4154 15.9974 45.5771 17.291 45.7388 18.835C45.9409 20.379 46.1228 22.0483 46.2845 23.8427C46.4867 25.6371 46.6686 27.348 46.8303 28.9755C47.0325 30.603 47.1942 32.0636 47.3155 33.3572C47.4367 34.6509 47.5378 35.5272 47.6187 35.9862C47.7399 36.7374 47.8814 37.572 48.0431 38.4901C48.2049 39.3664 48.3464 40.2219 48.4676 41.0565C48.5889 41.8494 48.6698 42.5379 48.7102 43.1221C48.7911 43.7064 48.7708 44.0611 48.6496 44.1863C48.5687 44.3114 48.2453 44.3532 47.6793 44.3114C47.1133 44.228 46.4867 44.1028 45.7994 43.9359C45.1526 43.7272 44.5259 43.4977 43.9195 43.2473C43.3535 42.9552 42.9897 42.684 42.828 42.4336C42.6663 42.2249 42.5046 41.9119 42.3429 41.4946C42.2216 41.0773 42.0599 40.3471 41.8577 39.3038C41.413 39.9298 40.9279 40.5974 40.4023 41.3069C39.9172 41.9745 39.4321 42.6005 38.9469 43.1847C38.4618 43.7272 38.0171 44.1654 37.6128 44.4992C37.2086 44.8331 36.9053 45 36.7032 45C36.3798 45 35.8947 44.6662 35.2478 43.9985C34.601 43.2891 33.9541 42.4962 33.3073 41.6198C32.6604 40.7435 32.0742 39.9089 31.5487 39.116C31.0231 38.3231 30.7401 37.8015 30.6997 37.5511C30.6189 37.3007 30.5784 36.6122 30.5784 35.4855C30.6189 34.3587 30.6593 33.1068 30.6997 31.7297C30.7806 30.3109 30.8614 28.9129 30.9423 27.5358C31.0231 26.117 31.104 24.9903 31.1848 24.1557C31.2657 23.321 31.3466 22.403 31.4274 21.4014C31.5487 20.3582 31.67 19.3984 31.7913 18.522C31.9125 17.604 32.0136 16.8111 32.0945 16.1434C32.2157 15.4757 32.3168 15.0793 32.3977 14.9541C32.4785 14.8289 32.7009 14.7663 33.0647 14.7663C33.469 14.7246 33.8733 14.7454 34.2775 14.8289C34.7223 14.8706 35.1265 14.975 35.4904 15.1419C35.8542 15.2671 36.0968 15.434 36.2181 15.6426C36.2989 15.8096 36.3394 16.3521 36.3394 17.2701C36.3798 18.1465 36.4 19.2315 36.4 20.5251C36.4 21.777 36.4 23.1541 36.4 24.6564C36.4 26.117 36.3798 27.4941 36.3394 28.7877C36.3394 30.0396 36.3191 31.1246 36.2787 32.0427C36.2787 32.919 36.2787 33.4407 36.2787 33.6076C36.2787 33.9414 36.4606 34.5883 36.8245 35.5481C37.2288 36.5079 37.633 37.4259 38.0373 38.3023L41.1907 34.4213C41.1502 33.6702 41.1098 32.7104 41.0694 31.5419C41.0694 30.3735 41.0492 29.1424 41.0087 27.8488C40.9683 26.5552 40.9279 25.2406 40.8875 23.9053C40.847 22.5699 40.8268 21.3597 40.8268 20.2747C40.8268 19.1897 40.8268 18.2925 40.8268 17.5831C40.8268 16.8737 40.847 16.4564 40.8875 16.3312C41.0087 16.0808 41.2513 15.747 41.6152 15.3297C41.979 14.9124 42.3833 14.5159 42.828 14.1404C43.2727 13.7648 43.677 13.4727 44.0408 13.264C44.4451 13.0554 44.7281 13.0345 44.8898 13.2014Z" fill="#00FF00"/>
<path d="M64.295 12.5755C64.6185 12.7841 64.9217 13.2014 65.2047 13.8274C65.5281 14.4116 65.8111 15.1002 66.0536 15.893C66.3366 16.6442 66.559 17.4579 66.7207 18.3343C66.9228 19.2106 67.0846 20.0243 67.2058 20.7755C67.3675 21.5266 67.4686 22.1735 67.509 22.716C67.5495 23.2167 67.5495 23.5297 67.509 23.6549C67.4282 23.8218 67.1856 23.9887 66.7813 24.1557C66.4175 24.3226 65.8717 24.5104 65.144 24.719C64.4163 24.9277 63.4056 25.1572 62.112 25.4076C62.0311 23.1124 61.8694 21.3806 61.6268 20.2121C61.3843 19.0019 61.1215 18.1465 60.8385 17.6457C60.5151 17.0615 60.1714 16.7694 59.8076 16.7694C59.4437 16.9363 59.1203 17.1449 58.8373 17.3953C58.5543 17.604 58.3118 17.8335 58.1096 18.0839C57.8671 18.376 57.6447 18.689 57.4426 19.0228C57.3617 19.148 57.2809 19.4401 57.2 19.8991C57.1191 20.3582 57.0383 21.0467 56.9574 21.9648C56.9574 22.2569 56.9372 22.862 56.8968 23.7801C56.8968 24.6981 56.8766 25.7623 56.8362 26.9725C56.8362 28.1826 56.8159 29.4554 56.7755 30.7908C56.7755 32.1262 56.7553 33.3781 56.7149 34.5465C56.7149 35.6732 56.6947 36.633 56.6542 37.4259C56.6542 38.2188 56.634 38.6778 56.5936 38.803C56.5127 39.0117 56.3106 39.3038 55.9872 39.6794C55.6638 40.0549 55.2999 40.4097 54.8956 40.7435C54.4914 41.0356 54.1073 41.286 53.7434 41.4946C53.3796 41.6616 53.137 41.6407 53.0157 41.432C52.8945 41.3069 52.7732 40.7644 52.6519 39.8046C52.5306 38.8448 52.3891 37.6763 52.2274 36.2992C52.1061 34.8804 51.9646 33.3363 51.8029 31.6671C51.6412 29.9979 51.4997 28.3913 51.3784 26.8473C51.2571 25.3032 51.1561 23.9261 51.0752 22.716C50.9944 21.464 50.9337 20.5668 50.8933 20.0243C50.8529 19.2315 50.8124 18.3551 50.772 17.3953C50.7316 16.4355 50.6912 15.5383 50.6507 14.7037C50.6507 13.8274 50.6507 13.0762 50.6507 12.4503C50.6912 11.7826 50.772 11.3861 50.8933 11.261C50.9742 11.1358 51.2369 11.1149 51.6816 11.1984C52.1668 11.2401 52.6721 11.3653 53.1977 11.5739C53.7637 11.7409 54.2892 11.9704 54.7743 12.2625C55.2595 12.5546 55.5829 12.8258 55.7446 13.0762C55.8659 13.2849 55.9872 13.5979 56.1085 14.0152C56.8766 13.5979 57.6043 13.2223 58.2915 12.8884C59.0192 12.5129 59.7065 12.2416 60.3534 12.0747C61.0406 11.9078 61.7077 11.866 62.3545 11.9495C63.0014 11.9912 63.6482 12.1999 64.295 12.5755Z" fill="#00FF00"/>
<path d="M74.2402 34.5465C74.3615 34.8804 74.4222 35.3185 74.4222 35.861C74.4222 36.3618 74.3615 36.9043 74.2402 37.4885C74.119 38.031 73.9572 38.5735 73.7551 39.116C73.5934 39.6168 73.4115 40.0341 73.2093 40.3679C73.0476 40.6183 72.8253 40.827 72.5423 40.9939C72.2593 41.1608 71.9561 41.286 71.6327 41.3695C71.3092 41.4112 71.006 41.432 70.723 41.432C70.44 41.432 70.2177 41.432 70.056 41.432C69.8134 41.3903 69.5506 41.2025 69.2676 40.8687C69.0251 40.5348 68.8027 40.1384 68.6006 39.6794C68.4389 39.1786 68.3176 38.657 68.2367 38.1145C68.1559 37.5303 68.1761 36.9878 68.2974 36.487C68.4187 35.9862 68.7623 35.5481 69.3283 35.1725C69.8943 34.7969 70.5007 34.5048 71.1475 34.2961C71.8348 34.0875 72.4816 34.004 73.0881 34.0458C73.6945 34.0458 74.0785 34.2127 74.2402 34.5465Z" fill="white"/>
<path d="M92.9178 13.7648C93.1604 14.0569 93.3827 14.3699 93.5848 14.7037C93.787 14.9958 93.9689 15.4131 94.1306 15.9556C94.2923 16.4564 94.4136 17.1241 94.4945 17.9587C94.6157 18.7933 94.6764 19.8783 94.6764 21.2137C94.6764 23.3419 94.6157 25.491 94.4945 27.661C94.4136 29.7893 94.3328 31.6671 94.2519 33.2946C94.2115 34.7552 94.171 36.1114 94.1306 37.3633C94.0902 38.6152 94.0498 39.7211 94.0093 40.6809C93.9689 41.599 93.9083 42.3293 93.8274 42.8717C93.787 43.4142 93.7466 43.7064 93.7061 43.7481C93.5444 43.8733 93.2816 43.8315 92.9178 43.6229C92.5944 43.3725 92.2305 43.0595 91.8262 42.684C91.4624 42.3084 91.1188 41.9119 90.7953 41.4946C90.4719 41.0773 90.2698 40.7435 90.1889 40.4931C90.1889 40.2845 90.1283 39.6794 90.007 38.6778C89.0367 39.2621 87.9654 39.6794 86.793 39.9298C85.6206 40.1384 84.4482 40.2219 83.2758 40.1801C82.1438 40.0967 81.0927 39.8672 80.1225 39.4916C79.1522 39.116 78.4245 38.6152 77.9394 37.9893C77.7372 37.7389 77.5553 37.3633 77.3936 36.8626C77.2723 36.3618 77.151 35.7984 77.0297 35.1725C76.9489 34.5048 76.868 33.8162 76.7872 33.1068C76.7063 32.3557 76.6457 31.6671 76.6052 31.0412C76.5244 29.4137 76.7265 28.0157 77.2117 26.8473C77.6968 25.6371 78.5862 24.7399 79.8799 24.1557C80.4459 23.9053 81.1938 23.7801 82.1236 23.7801C83.0939 23.7383 84.0439 23.7801 84.9738 23.9053C85.944 23.9887 86.8132 24.1139 87.5813 24.2808C88.3495 24.406 88.8346 24.5104 89.0367 24.5938C88.875 22.4656 88.7537 20.6294 88.6729 19.0854C88.592 17.4997 88.4303 16.4773 88.1878 16.0182C87.9856 15.7261 87.7431 15.434 87.4601 15.1419C87.2175 14.9332 86.8941 14.7037 86.4898 14.4533C86.0855 14.2029 85.6004 14.0152 85.0344 13.89C84.5897 13.8065 84.1854 13.9943 83.8216 14.4533C83.4982 14.8706 83.1949 15.6218 82.912 16.7068C82.6694 17.75 82.5279 19.3567 82.4875 21.5266C81.0725 21.5684 79.981 21.5684 79.2128 21.5266C78.4851 21.4432 77.9394 21.3597 77.5755 21.2763C77.1308 21.1928 76.868 21.0885 76.7872 20.9633C76.7063 20.7964 76.7467 20.1913 76.9085 19.148C77.0702 18.063 77.2925 16.8946 77.5755 15.6426C77.8989 14.3907 78.2628 13.2014 78.6671 12.0747C79.1118 10.948 79.5767 10.2386 80.0618 9.94644C81.0321 9.36222 82.1843 9.15357 83.5184 9.32049C84.8929 9.48741 86.227 9.84212 87.5207 10.3846C88.8144 10.9271 89.9666 11.5322 90.9773 12.1999C91.988 12.8676 92.6348 13.3892 92.9178 13.7648ZM89.158 32.0427C89.158 31.834 89.1782 31.5628 89.2187 31.229C89.2591 30.8534 89.2793 30.4778 89.2793 30.1022C89.2793 29.7267 89.2591 29.372 89.2187 29.0381C89.2187 28.7043 89.1782 28.4539 89.0974 28.287C88.9761 28.0366 88.6122 27.8279 88.0058 27.661C87.4398 27.4941 86.793 27.3898 86.0653 27.348C85.3376 27.2646 84.6503 27.2437 84.0035 27.2854C83.3567 27.2854 82.912 27.3689 82.6694 27.5358C82.346 27.7445 82.1034 28.0366 81.9417 28.4122C81.8204 28.7877 81.7396 29.372 81.6991 30.1648C81.6991 30.5404 81.7193 30.9368 81.7598 31.3541C81.8002 31.7715 81.8406 32.1888 81.8811 32.6061C81.9619 32.9816 82.0428 33.3155 82.1236 33.6076C82.2449 33.8997 82.3662 34.0875 82.4875 34.171C82.7705 34.3796 83.2556 34.5674 83.9429 34.7343C84.6706 34.8595 85.3982 34.9012 86.1259 34.8595C86.8536 34.776 87.5207 34.5257 88.1271 34.1084C88.7335 33.6911 89.0772 33.0025 89.158 32.0427Z" fill="#00D5FF"/>
<path d="M111.717 12.5755C112.04 12.7841 112.343 13.2014 112.626 13.8274C112.95 14.4116 113.233 15.1002 113.475 15.893C113.758 16.6442 113.981 17.4579 114.142 18.3343C114.344 19.2106 114.506 20.0243 114.627 20.7755C114.789 21.5266 114.89 22.1735 114.931 22.716C114.971 23.2167 114.971 23.5297 114.931 23.6549C114.85 23.8218 114.607 23.9887 114.203 24.1557C113.839 24.3226 113.293 24.5104 112.566 24.719C111.838 24.9277 110.827 25.1572 109.534 25.4076C109.453 23.1124 109.291 21.3806 109.048 20.2121C108.806 19.0019 108.543 18.1465 108.26 17.6457C107.937 17.0615 107.593 16.7694 107.229 16.7694C106.865 16.9363 106.542 17.1449 106.259 17.3953C105.976 17.604 105.733 17.8335 105.531 18.0839C105.289 18.376 105.066 18.689 104.864 19.0228C104.783 19.148 104.702 19.4401 104.622 19.8991C104.541 20.3582 104.46 21.0467 104.379 21.9648C104.379 22.2569 104.359 22.862 104.318 23.7801C104.318 24.6981 104.298 25.7623 104.258 26.9725C104.258 28.1826 104.238 29.4554 104.197 30.7908C104.197 32.1262 104.177 33.3781 104.136 34.5465C104.136 35.6732 104.116 36.633 104.076 37.4259C104.076 38.2188 104.056 38.6778 104.015 38.803C103.934 39.0117 103.732 39.3038 103.409 39.6794C103.085 40.0549 102.721 40.4097 102.317 40.7435C101.913 41.0356 101.529 41.286 101.165 41.4946C100.801 41.6616 100.559 41.6407 100.437 41.432C100.316 41.3069 100.195 40.7644 100.073 39.8046C99.9522 38.8448 99.8107 37.6763 99.649 36.2992C99.5277 34.8804 99.3862 33.3363 99.2245 31.6671C99.0628 29.9979 98.9213 28.3913 98.8 26.8473C98.6787 25.3032 98.5777 23.9261 98.4968 22.716C98.4159 21.464 98.3553 20.5668 98.3149 20.0243C98.2744 19.2315 98.234 18.3551 98.1936 17.3953C98.1532 16.4355 98.1127 15.5383 98.0723 14.7037C98.0723 13.8274 98.0723 13.0762 98.0723 12.4503C98.1127 11.7826 98.1936 11.3861 98.3149 11.261C98.3957 11.1358 98.6585 11.1149 99.1032 11.1984C99.5883 11.2401 100.094 11.3653 100.619 11.5739C101.185 11.7409 101.711 11.9704 102.196 12.2625C102.681 12.5546 103.004 12.8258 103.166 13.0762C103.287 13.2849 103.409 13.5979 103.53 14.0152C104.298 13.5979 105.026 13.2223 105.713 12.8884C106.441 12.5129 107.128 12.2416 107.775 12.0747C108.462 11.9078 109.129 11.866 109.776 11.9495C110.423 11.9912 111.07 12.1999 111.717 12.5755Z" fill="#00D5FF"/>
<path d="M129.97 14.5159C130.01 14.6411 130.01 14.9958 129.97 15.5801C129.929 16.1225 129.848 16.7485 129.727 17.4579C129.646 18.1256 129.545 18.7516 129.424 19.3358C129.303 19.8783 129.202 20.2121 129.121 20.3373C128.716 20.379 128.312 20.3999 127.908 20.3999C127.504 20.3582 127.12 20.3373 126.756 20.3373H125.482C125.442 23.0915 125.381 25.8249 125.3 28.5373C125.219 31.2498 125.118 33.6911 124.997 35.861C124.876 37.9893 124.734 39.7211 124.573 41.0565C124.451 42.3918 124.33 43.0804 124.209 43.1221C123.926 43.1639 123.602 43.0387 123.238 42.7466C122.875 42.4544 122.511 42.0997 122.147 41.6824C121.824 41.2234 121.52 40.7644 121.237 40.3053C120.995 39.8046 120.853 39.3664 120.813 38.9908C120.611 36.4453 120.429 34.0249 120.267 31.7297C120.105 29.3928 119.984 27.3272 119.903 25.5328C119.741 23.4462 119.64 21.5058 119.6 19.7114C119.155 19.6696 118.711 19.607 118.266 19.5236C117.862 19.4401 117.437 19.3567 116.992 19.2732C116.588 19.1897 116.164 19.1063 115.719 19.0228C115.638 18.9394 115.537 18.7516 115.416 18.4594C115.294 18.1256 115.173 17.7709 115.052 17.3953C114.971 17.0198 114.89 16.665 114.809 16.3312C114.728 15.9556 114.688 15.6844 114.688 15.5175C114.688 15.3923 115.133 15.2671 116.022 15.1419C116.952 15.0167 118.084 14.9124 119.418 14.8289C119.337 12.6172 119.277 10.6976 119.236 9.07011C119.236 7.40089 119.297 6.27417 119.418 5.68994C119.539 4.89706 119.863 4.14592 120.388 3.4365C120.954 2.68535 121.541 2.03853 122.147 1.49604C122.794 0.95354 123.38 0.557101 123.906 0.306719C124.472 0.0146057 124.835 -0.0688552 124.997 0.0563361C125.118 0.139797 125.219 0.577966 125.3 1.37084C125.381 2.12199 125.442 3.14439 125.482 4.43803C125.523 5.73167 125.543 7.25483 125.543 9.00751C125.543 10.7185 125.543 12.5337 125.543 14.4533C126.756 14.3699 127.787 14.349 128.636 14.3907C129.485 14.3907 129.929 14.4325 129.97 14.5159Z" fill="#00D5FF"/>
</svg>
